<!--?xml version="1.0" standalone="no"?-->
              <svg id="sw-js-blob-svg" viewBox="0 0 100 100" xmlns="http://www.w3.org/2000/svg" version="1.1">
                    <defs> 
                        <linearGradient id="sw-gradient" x1="0" x2="1" y1="1" y2="0">
                            <stop id="stop1" stop-color="rgba(247, 199, 55, 0.58)" offset="0%"></stop>
                            <stop id="stop2" stop-color="rgba(247, 199, 27, 0.38)" offset="100%"></stop>
                        </linearGradient>
                    </defs>
                <path fill="url(#sw-gradient)" d="M16.3,-26.1C21.3,-22.2,25.4,-17.9,30,-12.4C34.5,-6.9,39.3,-0.3,37.9,5C36.4,10.2,28.6,14.1,23.3,20.2C18,26.2,15.3,34.3,10,37.4C4.8,40.5,-3,38.4,-10.2,35.8C-17.4,33.1,-24,29.9,-26.4,24.4C-28.7,18.9,-26.8,11.2,-26.6,4.5C-26.5,-2.2,-28.2,-7.9,-27,-13.1C-25.8,-18.3,-21.7,-22.9,-16.8,-26.8C-11.8,-30.7,-5.9,-33.9,-0.1,-33.7C5.7,-33.6,11.4,-30.1,16.3,-26.1Z" width="100%" height="100%" transform="translate(50 50)" stroke-width="0" style="transition: all 0.3s ease 0s;" stroke="url(#sw-gradient)"></path>
              </svg>