<svg xmlns="http://www.w3.org/2000/svg" version="1.1" xmlns:xlink="http://www.w3.org/1999/xlink" xmlns:svgjs="http://svgjs.com/svgjs" width="1440" height="560" preserveAspectRatio="none" viewBox="0 0 1440 560"><g mask="url(&quot;#SvgjsMask1013&quot;)" fill="none"><rect width="1440" height="560" x="0" y="0" fill="rgba(255, 255, 255, 1)"></rect><path d="M1134.72 556.96L1157.75 556.96L1157.75 592.92L1134.72 592.92z" fill="rgba(25, 34, 125, 1)"></path><path d="M1218.53 81.38a37.51 37.51 0 1 0-73.87-13.05z" fill="rgba(25, 34, 125, 1)"></path><path d="M1343.61 23.71L1378.19 23.71L1378.19 37.26L1343.61 37.26z" fill="rgba(25, 34, 125, 1)"></path><path d="M595.23 262.72a47.11 47.11 0 1 0 50.82-79.34z" stroke="rgba(25, 34, 125, 1)"></path><path d="M1140.87 452.88L1188.77 452.88L1188.77 459.73L1140.87 459.73z" stroke="rgba(25, 34, 125, 1)"></path><path d="M385.47 495.78L391.79 495.78L391.79 518.36L385.47 518.36z" fill="rgba(25, 34, 125, 1)"></path><path d="M226.7 421.08L240.86 421.08L240.86 436.9L226.7 436.9z" fill="rgba(25, 34, 125, 1)"></path><path d="M1101.49 214.41L1111.46 214.41L1111.46 219.46L1101.49 219.46z" fill="rgba(25, 34, 125, 1)"></path><path d="M526.89 193.98L566.51 193.98L566.51 233.6L526.89 233.6z" stroke="rgba(25, 34, 125, 1)"></path><path d="M1336.65 352.43a45.76 45.76 0 1 0 75.9-51.13z" fill="rgba(25, 34, 125, 1)"></path><path d="M1262.67 398.12 a11.37 11.37 0 1 0 22.74 0 a11.37 11.37 0 1 0 -22.74 0z" fill="rgba(25, 34, 125, 1)"></path><path d="M1075.9 252.44a27.71 27.71 0 1 0-52.84 16.69z" stroke="rgba(25, 34, 125, 1)"></path><path d="M671.97 378.05 a22.59 22.59 0 1 0 45.18 0 a22.59 22.59 0 1 0 -45.18 0z" fill="rgba(25, 34, 125, 1)"></path><path d="M779.7 152.87L833.7 152.87L833.7 206.87L779.7 206.87z" fill="rgba(25, 34, 125, 1)"></path><path d="M200.19 445.03a50.36 50.36 0 1 0 69.31-73.08z" fill="rgba(25, 34, 125, 1)"></path><path d="M352.82 384.58 a40.87 40.87 0 1 0 81.74 0 a40.87 40.87 0 1 0 -81.74 0z" stroke="rgba(25, 34, 125, 1)"></path><path d="M10.06 464.74 a2.57 2.57 0 1 0 5.14 0 a2.57 2.57 0 1 0 -5.14 0z" stroke="rgba(25, 34, 125, 1)"></path><path d="M1098.08 98.72L1147.31 98.72L1147.31 147.95L1098.08 147.95z" stroke="rgba(25, 34, 125, 1)"></path><path d="M1392.83 433.83L1395.55 433.83L1395.55 458.15L1392.83 458.15z" stroke="rgba(25, 34, 125, 1)"></path><path d="M207.04 118.91a28.64 28.64 0 1 0-57.21 2.86z" stroke="rgba(25, 34, 125, 1)"></path><path d="M18.18 489.09L22.25 489.09L22.25 493.16L18.18 493.16z" fill="rgba(25, 34, 125, 1)"></path><path d="M1395.23 121.04L1434.41 121.04L1434.41 160.22L1395.23 160.22z" stroke="rgba(25, 34, 125, 1)"></path><path d="M280.64 293.75a36.91 36.91 0 1 0-47.73-56.31z" stroke="rgba(25, 34, 125, 1)"></path><path d="M645.39 337.39a55.94 55.94 0 1 0-103.99-41.27z" stroke="rgba(25, 34, 125, 1)"></path><path d="M1082.61 349.62a55 55 0 1 0-66.97-87.27z" fill="rgba(25, 34, 125, 1)"></path><path d="M449.36 24.61L489.29 24.61L489.29 64.54L449.36 64.54z" stroke="rgba(25, 34, 125, 1)"></path><path d="M205.62 253.12 a30 30 0 1 0 60 0 a30 30 0 1 0 -60 0z" fill="rgba(25, 34, 125, 1)"></path><path d="M62.76 231.39L86.14 231.39L86.14 263.87L62.76 263.87z" stroke="rgba(25, 34, 125, 1)"></path><path d="M745.19 164.24L747.09 164.24L747.09 166.14L745.19 166.14z" fill="rgba(25, 34, 125, 1)"></path><path d="M1404.98 449.43L1411.18 449.43L1411.18 455.63L1404.98 455.63z" fill="rgba(25, 34, 125, 1)"></path><path d="M401.48 252.57L454.35 252.57L454.35 305.44L401.48 305.44z" fill="rgba(25, 34, 125, 1)"></path><path d="M927.3 20.47L977.82 20.47L977.82 28.58L927.3 28.58z" fill="rgba(25, 34, 125, 1)"></path><path d="M1157.19 404.51L1187.64 404.51L1187.64 434.96L1157.19 434.96z" stroke="rgba(25, 34, 125, 1)"></path></g><defs><mask id="SvgjsMask1013"><rect width="1440" height="560" fill="#ffffff"></rect></mask></defs></svg>