<svg xmlns="http://www.w3.org/2000/svg" version="1.1" xmlns:xlink="http://www.w3.org/1999/xlink" xmlns:svgjs="http://svgjs.com/svgjs" width="2560" height="1000" preserveAspectRatio="none" viewBox="0 0 2560 1000"><g mask="url(&quot;#SvgjsMask1021&quot;)" fill="none"><rect width="2560" height="1000" x="0" y="0" fill="rgba(255, 255, 255, 1)"></rect><path d="M2394.33 447.76L2480.28 447.76L2480.28 533.71L2394.33 533.71z" stroke="rgba(251, 207, 26, 1)"></path><path d="M2019.83 569.44L2117.39 569.44L2117.39 589.4L2019.83 589.4z" fill="rgba(23, 38, 167, 1)"></path><path d="M1951.12 703.42a46.49 46.49 0 1 0 45.75 80.94z" fill="rgba(251, 207, 26, 1)"></path><path d="M948.43 209.23a99.49 99.49 0 1 0-75.62-184.05z" fill="rgba(23, 38, 167, 1)"></path><path d="M819.25 917.42L838.4 917.42L838.4 936.57L819.25 936.57z" fill="rgba(251, 207, 26, 1)"></path><path d="M1582.08 584.67 a94.13 94.13 0 1 0 188.26 0 a94.13 94.13 0 1 0 -188.26 0z" stroke="rgba(251, 207, 26, 1)"></path><path d="M1446.3 630.2 a40.13 40.13 0 1 0 80.26 0 a40.13 40.13 0 1 0 -80.26 0z" stroke="rgba(251, 207, 26, 1)"></path><path d="M2133.1 936.63a81.64 81.64 0 1 0-127.47 102.03z" fill="rgba(23, 38, 167, 1)"></path><path d="M1685.45 815.44L1755.07 815.44L1755.07 885.06L1685.45 885.06z" stroke="rgba(251, 207, 26, 1)"></path><path d="M803.97 864.68a7.69 7.69 0 1 0-11.09-10.65z" fill="rgba(23, 38, 167, 1)"></path><path d="M2421.65 634.16L2516.89 634.16L2516.89 729.4L2421.65 729.4z" stroke="rgba(23, 38, 167, 1)"></path><path d="M971.99 246.1a71.18 71.18 0 1 0-142.24 5.92z" stroke="rgba(251, 207, 26, 1)"></path><path d="M1907.18 1027.36a90.54 90.54 0 1 0-38.4-176.96z" stroke="rgba(251, 207, 26, 1)"></path><path d="M850.56 798.77L863.54 798.77L863.54 811.75L850.56 811.75z" stroke="rgba(23, 38, 167, 1)"></path><path d="M2021.31 306.1a92.35 92.35 0 1 0 138.54 122.15z" stroke="rgba(23, 38, 167, 1)"></path><path d="M1175.56 898.92L1197.66 898.92L1197.66 912.05L1175.56 912.05z" stroke="rgba(251, 207, 26, 1)"></path><path d="M1168.3 150.76L1262.8 150.76L1262.8 164.01L1168.3 164.01z" stroke="rgba(251, 207, 26, 1)"></path><path d="M1681.28 188.48a60.92 60.92 0 1 0-104.54-62.58z" stroke="rgba(23, 38, 167, 1)"></path><path d="M1343.68 919.04L1384.51 919.04L1384.51 959.87L1343.68 959.87z" fill="rgba(251, 207, 26, 1)"></path><path d="M2448.62 807.15L2501.99 807.15L2501.99 895.74L2448.62 895.74z" fill="rgba(23, 38, 167, 1)"></path><path d="M238.86 675.25a40.76 40.76 0 1 0-6.55 81.25z" fill="rgba(251, 207, 26, 1)"></path><path d="M1292.64 297.45 a67.44 67.44 0 1 0 134.88 0 a67.44 67.44 0 1 0 -134.88 0z" stroke="rgba(251, 207, 26, 1)"></path><path d="M2167.42 159L2259.86 159L2259.86 165.26L2167.42 165.26z" fill="rgba(251, 207, 26, 1)"></path><path d="M1520.45 818.81L1615.86 818.81L1615.86 914.22L1520.45 914.22z" fill="rgba(23, 38, 167, 1)"></path><path d="M495.85 436.99L510.15 436.99L510.15 451.29L495.85 451.29z" fill="rgba(23, 38, 167, 1)"></path><path d="M1085.77 755.15L1094.73 755.15L1094.73 764.11L1085.77 764.11z" stroke="rgba(23, 38, 167, 1)"></path><path d="M2007.81 463.37L2033.54 463.37L2033.54 489.1L2007.81 489.1z" fill="rgba(251, 207, 26, 1)"></path><path d="M540.64 362.7 a47.2 47.2 0 1 0 94.4 0 a47.2 47.2 0 1 0 -94.4 0z" fill="rgba(251, 207, 26, 1)"></path><path d="M1606.42 185.06 a41.37 41.37 0 1 0 82.74 0 a41.37 41.37 0 1 0 -82.74 0z" stroke="rgba(23, 38, 167, 1)"></path><path d="M1505.81 989.8L1557.94 989.8L1557.94 1041.93L1505.81 1041.93z" fill="rgba(251, 207, 26, 1)"></path><path d="M1925.53 970.83a87.97 87.97 0 1 0-175.77-7.83z" stroke="rgba(23, 38, 167, 1)"></path><path d="M2440.81 209.22L2526.03 209.22L2526.03 294.44L2440.81 294.44z" fill="rgba(23, 38, 167, 1)"></path></g><defs><mask id="SvgjsMask1021"><rect width="2560" height="1000" fill="#ffffff"></rect></mask></defs></svg>