<svg xmlns="http://www.w3.org/2000/svg" version="1.1" xmlns:xlink="http://www.w3.org/1999/xlink" xmlns:svgjs="http://svgjs.com/svgjs" width="1440" height="560" preserveAspectRatio="none" viewBox="0 0 1440 560"><g mask="url(&quot;#SvgjsMask1050&quot;)" fill="none"><path d="M674.93 496L684.69 487.71 694.93 495.4 704.68 487.11 714.92 494.8 724.67 486.51 734.91 494.2M675.17 504L684.93 495.7 695.17 503.4 704.92 495.1 715.16 502.8 724.91 494.5 735.15 502.2M675.41 512L685.17 503.7 695.41 511.4 705.16 503.1 715.4 510.79 725.15 502.5 735.39 510.19" stroke="rgba(213, 194, 27, 1)" stroke-width="2.73" stroke-dasharray="4, 4"></path><path d="M992.39 417.68L1005.03 419.72 1005.82 432.5 1018.46 434.54 1019.25 447.32 1031.89 449.36 1032.67 462.14M986.46 423.05L999.1 425.09 999.89 437.87 1012.53 439.91 1013.32 452.69 1025.96 454.73 1026.75 467.51M980.53 428.42L993.17 430.46 993.96 443.24 1006.6 445.28 1007.39 458.06 1020.03 460.1 1020.82 472.89" stroke="rgba(25, 31, 95, 1)" stroke-width="2.97" stroke-dasharray="2, 2"></path><rect width="287.76" height="287.76" clip-path="url(&quot;#SvgjsClipPath1051&quot;)" x="946.3" y="286.43" fill="url(#SvgjsPattern1052)" transform="rotate(63.59, 1090.18, 430.31)"></rect><rect width="352.24" height="352.24" clip-path="url(&quot;#SvgjsClipPath1053&quot;)" x="279.63" y="166.41" fill="url(#SvgjsPattern1054)" transform="rotate(287.51, 455.75, 342.53)"></rect><circle r="46.666666666666664" cx="1322.7" cy="482.73" fill="rgba(213, 194, 27, 1)"></circle><path d="M369.18 121.6a5.6 5.6 0 1 0 7.55-8.28 5.6 5.6 0 1 0-7.55 8.28zM379.96 109.77a5.6 5.6 0 1 0 7.54-8.28 5.6 5.6 0 1 0-7.54 8.28zM390.73 97.95a5.6 5.6 0 1 0 7.55-8.28 5.6 5.6 0 1 0-7.55 8.28zM401.51 86.12a5.6 5.6 0 1 0 7.54-8.28 5.6 5.6 0 1 0-7.54 8.28z" fill="rgba(213, 194, 27, 1)"></path><rect width="60" height="60" clip-path="url(&quot;#SvgjsClipPath1055&quot;)" x="940.63" y="446.39" fill="url(#SvgjsPattern1056)" transform="rotate(317.09, 970.63, 476.39)"></rect><circle r="46.666666666666664" cx="1300" cy="427.93" stroke="rgba(25, 31, 95, 1)" stroke-width="1"></circle><rect width="60" height="60" clip-path="url(&quot;#SvgjsClipPath1057&quot;)" x="781.55" y="319.58" fill="url(#SvgjsPattern1058)" transform="rotate(227.81, 811.55, 349.58)"></rect><path d="M46.34 271.07L33.65 269.37 32.52 256.61 19.83 254.91 18.7 242.16 6.01 240.46 4.88 227.7M52.13 265.54L39.43 263.84 38.31 251.09 25.61 249.39 24.49 236.63 11.79 234.93 10.67 222.17" stroke="rgba(25, 31, 95, 1)" stroke-width="2.06"></path><rect width="84" height="84" clip-path="url(&quot;#SvgjsClipPath1059&quot;)" x="112.74" y="22.38" fill="url(#SvgjsPattern1060)" transform="rotate(28.87, 154.74, 64.38)"></rect><rect width="97" height="97" clip-path="url(&quot;#SvgjsClipPath1061&quot;)" x="1052.48" y="294.51" fill="url(#SvgjsPattern1062)" transform="rotate(137.49, 1100.98, 343.01)"></rect></g><defs><mask id="SvgjsMask1050"><rect width="1440" height="560" fill="#ffffff"></rect></mask><pattern x="0" y="0" width="287.76" height="6.54" patternUnits="userSpaceOnUse" id="SvgjsPattern1052"><rect width="287.76" height="3.27" x="0" y="0" fill="rgba(213, 194, 27, 1)"></rect><rect width="287.76" height="3.27" x="0" y="3.27" fill="rgba(0, 0, 0, 0)"></rect></pattern><clipPath id="SvgjsClipPath1051"><circle r="71.94" cx="1090.18" cy="430.31"></circle></clipPath><pattern x="0" y="0" width="352.24" height="10.36" patternUnits="userSpaceOnUse" id="SvgjsPattern1054"><rect width="352.24" height="5.18" x="0" y="0" fill="rgba(25, 31, 95, 1)"></rect><rect width="352.24" height="5.18" x="0" y="5.18" fill="rgba(0, 0, 0, 0)"></rect></pattern><clipPath id="SvgjsClipPath1053"><circle r="88.06" cx="455.75" cy="342.53"></circle></clipPath><pattern x="0" y="0" width="60" height="6" patternUnits="userSpaceOnUse" id="SvgjsPattern1056"><rect width="60" height="3" x="0" y="0" fill="rgba(25, 31, 95, 1)"></rect><rect width="60" height="3" x="0" y="3" fill="rgba(0, 0, 0, 0)"></rect></pattern><clipPath id="SvgjsClipPath1055"><circle r="15" cx="970.63" cy="476.39"></circle></clipPath><pattern x="0" y="0" width="6" height="6" patternUnits="userSpaceOnUse" id="SvgjsPattern1058"><path d="M3 1L3 5M1 3L5 3" stroke="rgba(25, 31, 95, 1)" fill="none" stroke-width="1.86"></path></pattern><clipPath id="SvgjsClipPath1057"><circle r="15" cx="811.55" cy="349.58"></circle></clipPath><pattern x="0" y="0" width="6" height="6" patternUnits="userSpaceOnUse" id="SvgjsPattern1060"><path d="M0 6L3 0L6 6" stroke="rgba(213, 194, 27, 1)" fill="none"></path></pattern><clipPath id="SvgjsClipPath1059"><circle r="21" cx="154.74" cy="64.38"></circle></clipPath><pattern x="0" y="0" width="97" height="9.7" patternUnits="userSpaceOnUse" id="SvgjsPattern1062"><rect width="97" height="4.85" x="0" y="0" fill="rgba(25, 31, 95, 1)"></rect><rect width="97" height="4.85" x="0" y="4.85" fill="rgba(0, 0, 0, 0)"></rect></pattern><clipPath id="SvgjsClipPath1061"><circle r="24.25" cx="1100.98" cy="343.01"></circle></clipPath></defs></svg>