<svg xmlns="http://www.w3.org/2000/svg" version="1.1" xmlns:xlink="http://www.w3.org/1999/xlink" xmlns:svgjs="http://svgjs.com/svgjs" width="1440" height="560" preserveAspectRatio="none" viewBox="0 0 1440 560"><g mask="url(&quot;#SvgjsMask1154&quot;)" fill="none"><path d="M -802.0678007994293,201 C -706.07,263.4 -514.07,529 -322.0678007994292,513 C -130.07,497 -34.07,119 157.93219920057078,121 C 349.93,123 445.93,512 637.9321992005707,523 C 829.93,534 957.52,209.6 1117.9321992005707,176 C 1278.35,142.4 1375.59,319.2 1440,355" stroke="rgba(51, 109, 187, 0.58)" stroke-width="2"></path><path d="M -885.6948334449719,299 C -789.69,267.6 -597.69,117.4 -405.69483344497183,142 C -213.69,166.6 -117.69,406.2 74.30516655502817,422 C 266.31,437.8 362.31,218 554.3051665550281,221 C 746.31,224 857.17,453.2 1034.305166555028,437 C 1211.44,420.8 1358.86,199.4 1440,140" stroke="rgba(51, 109, 187, 0.58)" stroke-width="2"></path><path d="M -822.9512784130409,59 C -726.95,106.6 -534.95,300.6 -342.9512784130409,297 C -150.95,293.4 -54.95,5.4 137.04872158695912,41 C 329.05,76.6 425.05,437.8 617.0487215869591,475 C 809.05,512.2 932.46,242.2 1097.0487215869591,227 C 1261.64,211.8 1371.41,364.6 1440,399" stroke="rgba(51, 109, 187, 0.58)" stroke-width="2"></path><path d="M -113.17242731700264,227 C -17.17,262.2 174.83,408.4 366.82757268299736,403 C 558.83,397.6 654.83,192.6 846.8275726829974,200 C 1038.83,207.4 1134.83,466.6 1326.8275726829975,440 C 1518.83,413.4 1784.19,71.8 1806.8275726829975,67 C 1829.46,62.2 1513.37,346.2 1440,416" stroke="rgba(51, 109, 187, 0.58)" stroke-width="2"></path><path d="M -532.869509919336,40 C -436.87,130 -244.87,456.8 -52.869509919335975,490 C 139.13,523.2 235.13,204.6 427.130490080664,206 C 619.13,207.4 715.13,522 907.130490080664,497 C 1099.13,472 1280.56,83.2 1387.130490080664,81 C 1493.7,78.8 1429.43,405 1440,486" stroke="rgba(51, 109, 187, 0.58)" stroke-width="2"></path></g><defs><mask id="SvgjsMask1154"><rect width="1440" height="560" fill="#ffffff"></rect></mask></defs></svg>